# xmcd
#
# Track frame offsets: 
#        150
#        21885
#        29602
#        43960
#        57692
#        71642
#        100145
#        117020
#        129850
#        140140
#        168822
#
# Disc length: 2441 seconds
#
# Revision: 1
# Processed by: cddbd v1.5.2PL0 Copyright (c) Steve Scherf et al.
# Submitted via: ExactAudioCopy v1.3
#
DISCID=9e09870b
DTITLE=Medicine Head - Heavy On The Drum
DYEAR=1971
DGENRE=Rock
TTITLE0=There's Always A Light
TTITLE1=Any Day Now
TTITLE2=Medicine Pony
TTITLE3=Thou Shalt Not Pass
TTITLE4=Expectation Blues
TTITLE5=To Train Time
TTITLE6=Call On Your Saviour (And Sing With The Drum)
TTITLE7=Have No Fear
TTITLE8=You Got Me Rockin' And Rollin'
TTITLE9=Once There Was A Day
TTITLE10=(Sometimes) Even The Moon Has No Face
EXTD=
EXTT0=
EXTT1=
EXTT2=
EXTT3=
EXTT4=
EXTT5=
EXTT6=
EXTT7=
EXTT8=
EXTT9=
EXTT10=
PLAYORDER=
